PathFileType	4	(X/Y/Z)	C:\Users\Basilio\Documents\Thesis Gigler\squatting_fais\c3dfiles\075\SJ_pre4\markers_experimental.trc
DataRate	CameraRate	NumFrames	NumMarkers	Units	OrigDataRate	OrigDataStartFrame	OrigNumFrames
200.000000	200.000000	4	61	mm	200.000000	406	1624
Frame#	Time	FHD			LBHD			RBHD			C7			T10			CLAV			LSHO			LUUPA			LMUPA			LDUPA			LLEP			LMEP			LRAD			LUL			LRFIN			RSHO			RUPA1			RMUPA			RDUPA			RLEP			RMEP			RRAD			RUL			RUFIN			LASI			RASI			USACR			LSACR			RSACR			LTHI1			LTHI2			LTHI3			LTHI4			LLFC			LMFC			LTIB1			LTIB2			LTIB3			LTIB4			LLMAL			LMMAL			LHEE			LMT1			LMT2			LMT5			RTHI			RTHI2			RTHI3			RTHI4			RLFC			RMFC			RTIB1			RTIB2			RTIB3			RTIB4			RLMAL			RMMAL			RHEE			RMT1			RMT2			RMT5			
		X1	Y1	Z1	X2	Y2	Z2	X3	Y3	Z3	X4	Y4	Z4	X5	Y5	Z5	X6	Y6	Z6	X7	Y7	Z7	X8	Y8	Z8	X9	Y9	Z9	X10	Y10	Z10	X11	Y11	Z11	X12	Y12	Z12	X13	Y13	Z13	X14	Y14	Z14	X15	Y15	Z15	X16	Y16	Z16	X17	Y17	Z17	X18	Y18	Z18	X19	Y19	Z19	X20	Y20	Z20	X21	Y21	Z21	X22	Y22	Z22	X23	Y23	Z23	X24	Y24	Z24	X25	Y25	Z25	X26	Y26	Z26	X27	Y27	Z27	X28	Y28	Z28	X29	Y29	Z29	X30	Y30	Z30	X31	Y31	Z31	X32	Y32	Z32	X33	Y33	Z33	X34	Y34	Z34	X35	Y35	Z35	X36	Y36	Z36	X37	Y37	Z37	X38	Y38	Z38	X39	Y39	Z39	X40	Y40	Z40	X41	Y41	Z41	X42	Y42	Z42	X43	Y43	Z43	X44	Y44	Z44	X45	Y45	Z45	X46	Y46	Z46	X47	Y47	Z47	X48	Y48	Z48	X49	Y49	Z49	X50	Y50	Z50	X51	Y51	Z51	X52	Y52	Z52	X53	Y53	Z53	X54	Y54	Z54	X55	Y55	Z55	X56	Y56	Z56	X57	Y57	Z57	X58	Y58	Z58	X59	Y59	Z59	X60	Y60	Z60	X61	Y61	Z61	

407	2.03	-217.6918182373047	1701.686401367188	-917.8100585937502	-351.7274169921876	1566.262329101563	-979.1882934570315	-311.3141784667969	1606.898193359375	-824.9431152343752	-383.1814575195313	1458.435302734375	-916.3811645507815	-406.9405517578126	1134.021728515625	-914.5430297851565	-242.6827239990235	1393.107543945313	-919.3299560546877	-289.2829284667969	1426.653442382813	-1077.781860351563	-343.2750854492188	1275.893676757813	-1237.358642578125	-307.5424499511719	1240.300170898438	-1230.572021484375	-341.5901489257813	1216.88232421875	-1275.407470703125	-336.7138977050782	1133.223754882813	-1302.162353515625	-413.2713317871095	1122.150512695313	-1250.073486328125	-297.2049255371094	952.3536376953127	-1134.056030273438	-261.0626220703126	915.0957031250002	-1189.2060546875	-251.2015686035157	938.3465576171877	-1094.383911132813	-277.2073059082032	1430.582275390625	-756.5213012695314	-330.4541625976563	1282.406372070313	-598.0553588867189	-301.2514953613282	1241.851806640625	-602.8229980468751	-338.6635437011719	1223.508178710938	-558.6707153320314	-338.7214660644532	1155.17578125	-532.8194580078126	-412.5796813964845	1128.439453125	-564.8969116210939	-250.2864227294922	935.233825683594	-645.0541992187501	-295.2138671875001	958.3237304687502	-702.9992065429689	-236.3356018066407	955.0371704101565	-740.7862548828126	-242.9252929687501	945.926696777344	-1042.8876953125	-233.6726684570313	959.4485473632815	-791.8037719726565	-395.7261657714845	1035.8291015625	-915.3906250000002	-403.926971435547	1003.399719238281	-941.3694458007815	-401.4730529785157	1006.605102539063	-884.2883911132815	-312.1587524414063	720.1127319335939	-1119.939208984375	-286.5469970703126	640.0610351562501	-1121.608032226563	-239.8059387207032	642.8352661132814	-1106.7841796875	-316.5898437500001	588.4104003906251	-1112.744750976563	-323.5071105957032	481.1233520507814	-1104.825317382813	-275.9008178710938	463.0922851562501	-991.720642089844	-275.0398254394532	355.3312683105469	-1088.62646484375	-339.3875427246094	321.8803100585938	-1136.311889648438	-297.1254882812501	312.4385986328126	-1119.969116210938	-302.5024108886719	230.298324584961	-1098.210571289063	-385.5799560546876	94.88182830810548	-1119.174438476563	-347.2142333984376	99.06150054931643	-1041.363525390625	-433.0385131835939	49.13185501098634	-1074.533203125	-219.6641082763672	52.05422210693361	-1084.285522460938	-226.600814819336	57.49747467041017	-1132.4775390625	-271.5950622558594	42.59888076782227	-1180.541137695313	-308.9279479980469	775.4102783203127	-708.9267578125001	-272.6999206542969	720.8827514648439	-707.9022827148439	-241.5347290039063	725.0864257812501	-719.3717041015626	-303.6388854980469	640.7028808593751	-710.7236938476564	-320.0498046875001	486.6523437500001	-732.8461303710939	-278.8946228027344	466.8837280273439	-851.6375122070315	-276.8208007812501	332.5916442871094	-778.413024902344	-335.3271484375001	263.2638854980469	-716.5869140625001	-297.1343078613282	253.7206268310547	-744.2206420898439	-306.7038879394532	206.7191772460938	-777.1749267578127	-384.5309448242189	91.82178497314455	-735.7976074218751	-346.2327575683594	107.6212387084961	-814.8354492187502	-427.7735595703126	48.74919509887697	-792.7089843750002	-219.7395324707032	58.24812316894533	-765.0005493164064	-227.4904937744141	58.0346145629883	-723.9031372070314	-268.1149597167969	35.95209884643555	-675.3997192382814	
408	2.035	-217.4827880859376	1701.597534179688	-917.8126220703127	-351.5028991699219	1566.329345703125	-979.2695312500002	-311.1335144042969	1606.900024414063	-825.067810058594	-383.0130310058594	1458.472534179688	-916.4151000976565	-406.9002380371095	1134.025024414063	-914.5440673828127	-242.5526123046876	1393.050415039063	-919.4221191406252	-289.1690979003907	1426.598510742188	-1077.843383789063	-343.1143798828126	1275.852905273438	-1237.309692382813	-307.5461730957032	1240.264892578125	-1230.63134765625	-341.7936401367188	1216.963256835938	-1275.482666015625	-336.6908264160157	1133.151733398438	-1302.13818359375	-413.3226928710939	1122.2001953125	-1250.05224609375	-297.3078002929688	952.285095214844	-1134.079223632813	-261.1238708496094	915.1014404296877	-1189.193359375	-251.1889801025391	938.3406372070315	-1094.345947265625	-276.9972839355469	1430.576782226563	-756.5341186523439	-330.3182983398438	1282.42236328125	-598.0153198242189	-301.1293029785157	1241.884887695313	-602.8438110351564	-338.5090332031251	1223.584838867188	-558.7005615234376	-338.7406311035157	1155.153442382813	-532.8787841796876	-412.590301513672	1128.477661132813	-564.8519897460939	-250.4348144531251	935.1867675781252	-645.0474853515626	-295.2814331054688	958.3072509765627	-703.0006713867189	-236.4358062744141	954.9954223632815	-740.7772216796876	-243.1628417968751	945.8372192382815	-1042.866943359375	-233.7417297363282	959.3577270507815	-791.7996826171877	-395.7901306152345	1035.886474609375	-915.3572998046877	-404.037567138672	1003.425476074219	-941.4055175781252	-401.5555725097657	1006.63671875	-884.3079223632815	-312.3780212402344	720.0634765625001	-1120.031127929688	-287.2980957031251	640.2800292968751	-1121.9072265625	-239.9077148437501	642.8457641601564	-1106.840454101563	-317.3351440429688	588.5989379882814	-1112.919311523438	-323.4553222656251	481.0816650390626	-1104.871215820313	-275.7269897460938	463.113983154297	-991.7766113281252	-274.4938049316407	355.1640014648438	-1088.303588867188	-339.3040161132813	321.8888854980469	-1136.34228515625	-297.0901184082032	312.4379577636719	-1120.03125	-302.5064697265626	230.2610473632813	-1098.300415039063	-385.5616760253907	94.87195587158205	-1119.154663085938	-347.1508789062501	99.0812683105469	-1041.387451171875	-433.0513916015626	49.16436767578126	-1074.455810546875	-219.6238098144532	52.04803466796876	-1084.2578125	-226.5948791503907	57.5177345275879	-1132.439331054688	-271.6898803710938	42.58234405517579	-1180.547607421875	-309.0155029296876	775.3543701171877	-708.8530883789064	-272.6945495605469	720.8608398437501	-707.6004638671876	-241.4815826416016	725.0964965820314	-719.2927246093751	-303.4836120605469	640.6888427734376	-710.5839233398439	-319.7393493652344	486.6172485351564	-732.7127685546876	-278.8969116210938	466.9155273437501	-851.472106933594	-276.5652160644532	332.5419006347657	-778.3250732421877	-335.1257629394532	263.2465209960938	-716.4948120117189	-297.0148925781251	253.6758117675782	-744.2512817382814	-306.4481811523438	206.2846679687501	-776.8684082031252	-384.4957580566407	91.8123016357422	-735.8172607421876	-346.1420593261719	107.7250671386719	-814.7662353515627	-427.7196044921876	48.74259185791017	-792.725036621094	-219.6822509765626	58.26359176635744	-764.9651489257814	-227.5173950195313	57.96850204467775	-723.8488769531251	-268.1321716308594	35.93719100952149	-675.4033203125001	
409	2.04	-217.2327728271485	1701.557250976563	-917.7824707031252	-351.4209594726563	1566.221557617188	-979.309265136719	-311.0360412597657	1606.012573242188	-824.4395141601565	-382.7969665527344	1458.461791992188	-916.4388427734377	-406.9546813964845	1134.05908203125	-914.5426025390627	-242.4126586914063	1392.945434570313	-919.3770751953127	-289.0457153320313	1426.518188476563	-1077.858154296875	-343.2366943359376	1275.862548828125	-1237.401977539063	-307.4804992675782	1240.213623046875	-1230.641479492188	-341.7650146484376	1216.9072265625	-1275.496704101563	-336.7197570800782	1133.160034179688	-1302.173095703125	-413.4054260253907	1122.1923828125	-1250.04931640625	-297.3781738281251	952.3328247070315	-1134.047729492188	-261.2864379882813	915.0827636718752	-1189.229370117188	-251.3443145751954	938.3301391601565	-1094.3427734375	-276.8510437011719	1430.491943359375	-756.6061401367189	-330.2755737304688	1282.40283203125	-598.0663452148439	-301.0497436523438	1241.902465820313	-602.8439941406251	-338.3690185546876	1223.64892578125	-558.6823730468751	-338.6392211914063	1155.18359375	-532.8342895507814	-412.5351867675782	1128.519409179688	-564.7454833984376	-250.4664459228516	935.150329589844	-645.0266113281251	-295.4208984375001	958.2669677734377	-702.9686279296876	-236.6087951660157	954.8925781250002	-740.7719116210939	-243.4402923583985	945.8515625000002	-1042.889038085938	-233.8973999023438	959.236022949219	-791.753112792969	-395.862274169922	1035.85693359375	-915.365417480469	-404.1026916503907	1003.461547851563	-941.4041748046877	-401.6363220214845	1006.713134765625	-884.2954101562502	-312.2871398925782	719.9623413085939	-1119.966186523438	-287.2609558105469	640.3309936523439	-1122.062255859375	-239.7849884033204	642.8474121093751	-1106.906372070313	-317.3363952636719	588.5624389648439	-1113.002319335938	-323.4144897460938	481.0897521972657	-1104.974975585938	-275.5016479492188	463.0929565429689	-991.854919433594	-274.3878784179688	355.1997070312501	-1088.413818359375	-339.1797180175782	321.8967285156251	-1136.369995117188	-296.9132995605469	312.4581909179688	-1120.08154296875	-302.4423217773438	230.2685241699219	-1098.293823242188	-385.6543579101564	94.94732666015626	-1119.140502929688	-347.1453552246094	99.09327697753909	-1041.390869140625	-433.0755615234376	49.14785003662111	-1074.505249023438	-219.6357727050782	52.01409912109376	-1084.257934570313	-226.6144714355469	57.49446105957033	-1132.484008789063	-271.7665405273438	42.63010787963868	-1180.561767578125	-309.0756530761719	775.2713012695315	-708.8248291015626	-272.6702575683594	720.8486328125001	-707.5934448242189	-241.411849975586	725.1770019531251	-719.1580200195314	-303.3815917968751	640.6270751953126	-710.5131225585939	-319.4029846191407	486.5731506347657	-732.5640869140626	-278.6430969238282	466.812713623047	-851.3484497070315	-276.4565734863282	332.4070739746094	-778.2386474609377	-334.9898376464844	263.1718139648438	-716.3920288085939	-296.8787231445313	253.5288696289063	-744.2409667968751	-306.2675170898438	206.2261047363282	-776.7444458007815	-384.494598388672	91.80019378662111	-735.7980346679689	-346.1489257812501	107.6538314819336	-814.8474731445315	-427.7062377929689	48.73098373413087	-792.7280273437502	-219.7414550781251	58.23063278198244	-764.9608764648439	-227.5088958740235	57.93972778320314	-724.0651855468751	-268.1376037597657	35.95957946777344	-675.3988647460939	
410	2.045	-216.9744720458985	1701.46533203125	-917.8094482421877	-351.0632019042969	1566.1572265625	-979.3029785156252	-310.7527770996094	1606.18017578125	-824.5545043945315	-382.5978698730469	1458.461791992188	-916.457458496094	-406.889373779297	1134.071044921875	-914.5444946289065	-242.3421630859376	1392.926513671875	-919.4467773437502	-289.7216796875001	1426.630004882813	-1078.403930664063	-343.1288452148438	1275.82763671875	-1237.387451171875	-307.4783935546876	1240.181030273438	-1230.659057617188	-341.6884155273438	1216.866577148438	-1275.492431640625	-336.7984008789063	1133.147583007813	-1302.172607421875	-413.3674316406251	1122.270629882813	-1250.061767578125	-297.5147094726563	952.252624511719	-1134.056762695313	-261.4380187988282	915.0166625976565	-1189.23779296875	-251.4167785644532	938.2920532226565	-1094.281860351563	-276.6670532226563	1430.516723632813	-756.5814819335939	-330.1568603515626	1282.395874023438	-598.0999145507814	-300.9333190917969	1241.961547851563	-602.8432006835939	-338.2482299804688	1223.652221679688	-558.6510620117189	-338.5538330078126	1155.234130859375	-532.8355102539064	-412.4600830078126	1128.582397460938	-564.8288574218751	-250.7340545654297	934.988464355469	-645.0816040039064	-295.6149902343751	958.2503662109377	-702.9899291992189	-236.8013763427735	954.8220214843752	-740.8157958984376	-243.3650207519532	945.7963867187502	-1042.828002929688	-234.0842590332032	959.1793212890627	-791.7332153320315	-395.9960021972657	1035.9287109375	-915.3897705078127	-404.2281494140626	1003.46826171875	-941.364929199219	-401.7314453125001	1006.753601074219	-884.2984008789065	-313.3741455078126	720.1011962890626	-1120.182495117188	-287.2861022949219	640.3144531250001	-1122.169555664063	-239.7934570312501	642.9006347656251	-1106.987548828125	-316.6710205078126	588.3412475585939	-1112.979125976563	-323.2004394531251	481.048797607422	-1105.039184570313	-275.3366088867188	463.0565795898439	-991.9277343750002	-274.2566223144532	355.1581115722657	-1088.477294921875	-339.1230163574219	321.8261718750001	-1136.442016601563	-296.7775268554688	312.3655700683594	-1120.174560546875	-302.4051513671876	230.2161865234376	-1098.377197265625	-385.5894775390626	94.93357849121095	-1119.180786132813	-347.1395568847657	99.08244323730472	-1041.343139648438	-433.0720825195314	49.19312667846681	-1074.507568359375	-219.6726837158204	52.09326553344728	-1084.266479492188	-226.6160278320313	57.51137542724611	-1132.481201171875	-271.7662658691407	42.63834762573243	-1180.6005859375	-309.1362915039063	775.1826782226565	-708.7857666015626	-272.6278686523438	720.8588256835939	-707.6846313476564	-241.390853881836	725.1868286132814	-719.1304321289064	-303.2088317871094	640.5477905273439	-710.3651123046876	-319.0785217285157	486.5354614257814	-732.4467773437501	-278.4612731933594	466.815399169922	-851.239685058594	-276.1913452148438	332.3312988281251	-778.0894165039065	-334.8157653808594	263.1231994628907	-716.3059692382814	-296.7591552734376	253.3951416015626	-744.1829223632814	-306.1506042480469	206.1614379882813	-776.626647949219	-384.496795654297	91.83473205566408	-735.7667846679689	-346.0961914062501	107.7338027954102	-814.7723388671877	-427.7232360839845	48.74888992309572	-792.7275390625002	-219.7576141357422	58.24642944335939	-764.9589843750001	-227.4755401611329	58.03404235839845	-723.8507690429689	-268.1234436035157	35.95286560058594	-675.4025878906251	
